# xmcd
#
# Track frame offsets:
#	150
#	35115
#	79908
#	119027
#	161624
#	183743
#	209572
#	243041
#
# Disc length: 4192 seconds
#
# Revision: 1
# Processed by: cddbd v1.5.2PL0 Copyright (c) Steve Scherf et al.
# Submitted via: EasyCDDAExtractor 12.0.1.1
#
DISCID=73105e08
DTITLE=Autechre - Untilted
DYEAR=2005
DGENRE=Electronic
TTITLE0=LCC
TTITLE1=Ipacial Section
TTITLE2=Pro Radii
TTITLE3=Augmatic Disport
TTITLE4=Iera
TTITLE5=Fermium
TTITLE6=The Trees
TTITLE7=Sublimit
EXTD=
EXTT0=
EXTT1=
EXTT2=
EXTT3=
EXTT4=
EXTT5=
EXTT6=
EXTT7=
PLAYORDER=
